<?xml version="1.0" encoding="UTF-8" standalone="no"?><!DOCTYPE svg PUBLIC "-//W3C//DTD SVG 1.1//EN" "http://www.w3.org/Graphics/SVG/1.1/DTD/svg11.dtd"><svg width="100%" height="100%" viewBox="0 0 414 142" version="1.1" xmlns="http://www.w3.org/2000/svg" xmlns:xlink="http://www.w3.org/1999/xlink" xml:space="preserve" xmlns:serif="http://www.serif.com/" style="fill-rule:evenodd;clip-rule:evenodd;stroke-linejoin:round;stroke-miterlimit:2;"><g><path d="M136.6,72.9l-14.3,-18.3l10.9,0l8.9,11.6l9,-11.6l11.3,0l-14.7,18.3l17,21.5l-10.9,0l-11.7,-14.9l-12,14.9l-11.2,0l17.7,-21.5Z" style="fill:#fff;fill-rule:nonzero;"/><rect x="168.5" y="34.4" width="9.2" height="60.1" style="fill:#fff;fill-rule:nonzero;"/><path d="M191.8,54.7l10.4,22.7l11.2,-26.4l11.3,26.3l10.3,-22.6l10.3,0l-20.8,42.8l-11.1,-25.6l-11.2,25.6l-20.8,-42.8l10.4,0Z" style="fill:#fff;fill-rule:nonzero;"/><path d="M247.6,39.6c0,-1.6 0.6,-3 1.8,-4.2c1.2,-1.2 2.6,-1.8 4.2,-1.8c1.7,0 3.1,0.6 4.2,1.8c1.2,1.1 1.8,2.5 1.8,4.2c0,1.7 -0.6,3.1 -1.8,4.2c-1.1,1.2 -2.5,1.8 -4.2,1.8c-1.7,0 -3.1,-0.6 -4.2,-1.8c-1.2,-1.1 -1.8,-2.5 -1.8,-4.2Zm10.6,15.1l-0,39.8l-9.2,0l-0,-39.8l9.2,0Z" style="fill:#fff;fill-rule:nonzero;"/><path d="M267.3,54.7l9.2,0l0,3.7c3.2,-3.2 6.8,-4.8 10.9,-4.8c4.6,0 8.2,1.5 10.8,4.4c2.2,2.5 3.4,6.5 3.4,12.1l0,24.4l-9.2,-0l0,-22.3c0,-3.9 -0.5,-6.6 -1.6,-8.1c-1.1,-1.5 -3,-2.3 -5.8,-2.3c-3.1,-0 -5.2,1 -6.5,3c-1.3,2 -1.9,5.5 -1.9,10.4l0,19.2l-9.2,-0l0,-39.7l-0.1,-0Z" style="fill:#fff;fill-rule:nonzero;"/><path d="M349.2,93.5c0,1.9 -0.1,3.5 -0.2,5c-0.1,1.4 -0.3,2.7 -0.5,3.8c-0.7,3 -1.9,5.6 -3.8,7.7c-3.6,4.1 -8.5,6.2 -14.8,6.2c-5.3,0 -9.7,-1.4 -13.1,-4.3c-3.5,-2.9 -5.6,-7 -6.1,-12.2l9.2,0c0.4,2 0.9,3.5 1.8,4.5c1.9,2.5 4.7,3.7 8.3,3.7c6.7,0 10.1,-4.1 10.1,-12.4l0,-5.5c-3.6,3.7 -7.9,5.6 -12.6,5.6c-5.4,0 -9.9,-2 -13.3,-5.9c-3.5,-4 -5.2,-8.9 -5.2,-14.9c0,-5.8 1.6,-10.7 4.9,-14.8c3.5,-4.3 8.1,-6.5 13.8,-6.5c5,0 9.2,1.9 12.5,5.6l0,-4.5l9.2,0l0,38.9l-0.2,0Zm-8.8,-18.8c0,-3.9 -1,-7 -3.1,-9.3c-2.1,-2.4 -4.8,-3.6 -8,-3.6c-3.5,0 -6.2,1.3 -8.3,3.9c-1.8,2.3 -2.7,5.3 -2.7,9c0,3.6 0.9,6.6 2.7,8.9c2,2.5 4.7,3.8 8.3,3.8c3.6,0 6.3,-1.3 8.3,-3.8c1.8,-2.4 2.8,-5.3 2.8,-8.9Z" style="fill:#fff;fill-rule:nonzero;"/><path d="M381.4,61.5l-7.6,4c-1.2,-2.5 -2.7,-3.7 -4.5,-3.7c-0.8,0 -1.6,0.3 -2.2,0.8c-0.6,0.6 -0.9,1.3 -0.9,2.1c-0,1.5 1.8,3 5.3,4.5c4.9,2.1 8.2,4 9.8,5.8c1.7,1.8 2.5,4.2 2.5,7.1c-0,3.8 -1.4,7.1 -4.2,9.6c-2.8,2.5 -6.1,3.7 -10,3.7c-6.7,0 -11.4,-3.3 -14.2,-9.8l7.8,-3.6c1.1,1.9 1.9,3.1 2.5,3.6c1.1,1 2.5,1.6 4,1.6c3.1,0 4.7,-1.4 4.7,-4.2c-0,-1.6 -1.2,-3.2 -3.6,-4.6c-0.9,-0.5 -1.9,-0.9 -2.8,-1.3c-0.9,-0.4 -1.9,-0.9 -2.8,-1.3c-2.7,-1.3 -4.5,-2.6 -5.6,-3.9c-1.4,-1.7 -2.1,-3.8 -2.1,-6.4c-0,-3.5 1.2,-6.3 3.6,-8.6c2.4,-2.3 5.4,-3.4 8.8,-3.4c5.2,0.1 9,2.7 11.5,8Z" style="fill:#fff;fill-rule:nonzero;"/></g><path d="M19.8,50.5c16.8,-3.5 40.1,9.8 50.1,28.6c1.5,-22.2 19.9,-51.4 35,-60.4c-16.6,3.1 -32.5,13 -40.4,35.3c-13.1,-12.2 -30.6,-12 -44.7,-3.5Z" style="fill:#fff;"/><path d="M46.8,61.5c-3.7,-0.9 -7.4,-2.3 -11.1,-3.9l-0,12.4c3.7,1.6 7.4,3 11.1,3.8c3.7,0.8 7.4,1.2 11.1,1.4l-0,-9.5c-1.1,-1.1 -2.2,-2.1 -3.4,-3.1c-2.6,-0.2 -5.2,-0.5 -7.7,-1.1Z" style="fill:#fff;fill-rule:nonzero;"/><path d="M35.6,71.4l0,12.4c3.7,1.5 7.4,2.9 11.1,3.8c3.7,0.9 7.4,1.2 11.1,1.5l0,-12.4c-3.7,-0.2 -7.5,-0.5 -11.1,-1.4c-3.7,-1 -7.3,-2.4 -11.1,-3.9Z" style="fill:#fff;fill-rule:nonzero;"/><path d="M35.6,85.1l0,12.4c3.7,1.5 7.4,2.9 11.1,3.7c3.7,0.9 7.4,1.3 11.1,1.5l0,-12.4c-3.7,-0.3 -7.5,-0.6 -11.1,-1.5c-3.7,-0.8 -7.3,-2.2 -11.1,-3.7Z" style="fill:#fff;fill-rule:nonzero;"/><path d="M59.3,67.1l-0,8.1c2.1,-0.1 4.2,-0.2 6.2,-0.4c-1.9,-2.7 -4,-5.3 -6.2,-7.7Z" style="fill:#fff;fill-rule:nonzero;"/><g><path d="M70.5,89.6c-3.7,0.5 -7.4,0.7 -11.1,0.7l0,12.4c3.7,-0 7.4,-0.1 11.1,-0.5c3.7,-0.4 7.3,-1.2 11,-2.1l0,-12.9c-3.7,1 -7.4,1.9 -11,2.4Z" style="fill:#fff;fill-rule:nonzero;"/><path d="M94,52.5c-3.6,2.2 -7.4,3.9 -11.1,5.5l0,12.9c3.7,-1.5 7.4,-3 11.1,-5.1c3.8,-2.1 7.4,-4.8 11.1,-7.6l0,-13.9c-3.7,3 -7.3,5.9 -11.1,8.2Z" style="fill:#fff;fill-rule:nonzero;"/><path d="M94,80.7c3.8,-2 7.4,-4.4 11.1,-7l0,-14c-3.7,2.8 -7.4,5.4 -11.1,7.5c-3.6,2 -7.4,3.6 -11.1,5.1l0,12.9c3.7,-1.2 7.5,-2.6 11.1,-4.5Z" style="fill:#fff;fill-rule:nonzero;"/><path d="M75.8,60.3c-1.7,4.5 -3,9 -4,13.6c3.2,-0.6 6.4,-1.5 9.6,-2.5l0,-12.8c-1.8,0.6 -3.7,1.2 -5.6,1.7Z" style="fill:#fff;fill-rule:nonzero;"/><path d="M71.6,75.4c-0.4,2.4 -0.8,4.8 -1,7.2c-1.2,-2.2 -2.6,-4.4 -4,-6.5c-2.4,0.2 -4.8,0.4 -7.2,0.4l-0,12.4c3.7,-0.1 7.4,-0.2 11.1,-0.7c3.7,-0.5 7.3,-1.4 11,-2.4l-0,-12.9c-3.3,1 -6.6,1.9 -9.9,2.5Z" style="fill:#fff;fill-rule:nonzero;"/><path d="M94,95.6c3.8,-1.8 7.4,-4 11.1,-6.4l0,-13.9c-3.7,2.6 -7.4,5 -11.1,6.9c-3.6,1.9 -7.4,3.3 -11.1,4.6l0,12.9c3.7,-1.2 7.5,-2.4 11.1,-4.1Z" style="fill:#fff;fill-rule:nonzero;"/></g><rect x="118.577" y="98.016" width="183.777" height="20.608" style="fill:#fff;"/><rect x="352.27" y="98.016" width="33.52" height="20.608" style="fill:#fff;"/><path d="M128.801,103.816c-0.32,-0.464 -0.748,-0.804 -1.284,-1.02c-0.536,-0.216 -1.1,-0.324 -1.692,-0.324c-0.352,0 -0.692,0.04 -1.02,0.12c-0.328,0.08 -0.624,0.208 -0.888,0.384c-0.264,0.176 -0.476,0.404 -0.636,0.684c-0.16,0.28 -0.24,0.612 -0.24,0.996c-0,0.576 0.2,1.016 0.6,1.32c0.4,0.304 0.896,0.568 1.488,0.792c0.592,0.224 1.24,0.44 1.944,0.648c0.704,0.208 1.352,0.496 1.944,0.864c0.592,0.368 1.088,0.856 1.488,1.464c0.4,0.608 0.6,1.416 0.6,2.424c-0,0.912 -0.168,1.708 -0.504,2.388c-0.336,0.68 -0.788,1.244 -1.356,1.692c-0.568,0.448 -1.228,0.784 -1.98,1.008c-0.752,0.224 -1.544,0.336 -2.376,0.336c-1.056,0 -2.072,-0.176 -3.048,-0.528c-0.976,-0.352 -1.816,-0.944 -2.52,-1.776l2.28,-2.208c0.368,0.56 0.852,0.996 1.452,1.308c0.6,0.312 1.236,0.468 1.908,0.468c0.352,0 0.704,-0.048 1.056,-0.144c0.352,-0.096 0.672,-0.24 0.96,-0.432c0.288,-0.192 0.52,-0.436 0.696,-0.732c0.176,-0.296 0.264,-0.636 0.264,-1.02c-0,-0.624 -0.2,-1.104 -0.6,-1.44c-0.4,-0.336 -0.896,-0.62 -1.488,-0.852c-0.592,-0.232 -1.24,-0.452 -1.944,-0.66c-0.704,-0.208 -1.352,-0.492 -1.944,-0.852c-0.592,-0.36 -1.088,-0.84 -1.488,-1.44c-0.4,-0.6 -0.6,-1.404 -0.6,-2.412c-0,-0.88 0.18,-1.64 0.54,-2.28c0.36,-0.64 0.832,-1.172 1.416,-1.596c0.584,-0.424 1.252,-0.74 2.004,-0.948c0.752,-0.208 1.52,-0.312 2.304,-0.312c0.896,0 1.764,0.136 2.604,0.408c0.84,0.272 1.596,0.72 2.268,1.344l-2.208,2.328Z" style="fill-rule:nonzero;"/><path d="M136.289,112.408c0.096,0.864 0.432,1.536 1.008,2.016c0.576,0.48 1.272,0.72 2.088,0.72c0.72,0 1.324,-0.148 1.812,-0.444c0.488,-0.296 0.916,-0.668 1.284,-1.116l2.064,1.56c-0.672,0.832 -1.424,1.424 -2.256,1.776c-0.832,0.352 -1.704,0.528 -2.616,0.528c-0.864,0 -1.68,-0.144 -2.448,-0.432c-0.768,-0.288 -1.432,-0.696 -1.992,-1.224c-0.56,-0.528 -1.004,-1.164 -1.332,-1.908c-0.328,-0.744 -0.492,-1.572 -0.492,-2.484c-0,-0.912 0.164,-1.74 0.492,-2.484c0.328,-0.744 0.772,-1.38 1.332,-1.908c0.56,-0.528 1.224,-0.936 1.992,-1.224c0.768,-0.288 1.584,-0.432 2.448,-0.432c0.8,0 1.532,0.14 2.196,0.42c0.664,0.28 1.232,0.684 1.704,1.212c0.472,0.528 0.84,1.18 1.104,1.956c0.264,0.776 0.396,1.668 0.396,2.676l-0,0.792l-8.784,0Zm5.904,-2.16c-0.016,-0.848 -0.28,-1.516 -0.792,-2.004c-0.512,-0.488 -1.224,-0.732 -2.136,-0.732c-0.864,0 -1.548,0.248 -2.052,0.744c-0.504,0.496 -0.812,1.16 -0.924,1.992l5.904,0Z" style="fill-rule:nonzero;"/><path d="M147.761,105.64l2.88,0l-0,1.824l0.048,0c0.32,-0.672 0.776,-1.192 1.368,-1.56c0.592,-0.368 1.272,-0.552 2.04,-0.552c0.176,0 0.348,0.016 0.516,0.048c0.168,0.032 0.34,0.072 0.516,0.12l-0,2.784c-0.24,-0.064 -0.476,-0.116 -0.708,-0.156c-0.232,-0.04 -0.46,-0.06 -0.684,-0.06c-0.672,0 -1.212,0.124 -1.62,0.372c-0.408,0.248 -0.72,0.532 -0.936,0.852c-0.216,0.32 -0.36,0.64 -0.432,0.96c-0.072,0.32 -0.108,0.56 -0.108,0.72l-0,6.168l-2.88,0l-0,-11.52Z" style="fill-rule:nonzero;"/><path d="M155.537,105.64l3.144,0l3.072,8.064l0.048,0l3.096,-8.064l2.952,0l-4.536,11.52l-3.072,0l-4.704,-11.52Z" style="fill-rule:nonzero;"/><path d="M171.857,112.408c0.096,0.864 0.432,1.536 1.008,2.016c0.576,0.48 1.272,0.72 2.088,0.72c0.72,0 1.324,-0.148 1.812,-0.444c0.488,-0.296 0.916,-0.668 1.284,-1.116l2.064,1.56c-0.672,0.832 -1.424,1.424 -2.256,1.776c-0.832,0.352 -1.704,0.528 -2.616,0.528c-0.864,0 -1.68,-0.144 -2.448,-0.432c-0.768,-0.288 -1.432,-0.696 -1.992,-1.224c-0.56,-0.528 -1.004,-1.164 -1.332,-1.908c-0.328,-0.744 -0.492,-1.572 -0.492,-2.484c-0,-0.912 0.164,-1.74 0.492,-2.484c0.328,-0.744 0.772,-1.38 1.332,-1.908c0.56,-0.528 1.224,-0.936 1.992,-1.224c0.768,-0.288 1.584,-0.432 2.448,-0.432c0.8,0 1.532,0.14 2.196,0.42c0.664,0.28 1.232,0.684 1.704,1.212c0.472,0.528 0.84,1.18 1.104,1.956c0.264,0.776 0.396,1.668 0.396,2.676l-0,0.792l-8.784,0Zm5.904,-2.16c-0.016,-0.848 -0.28,-1.516 -0.792,-2.004c-0.512,-0.488 -1.224,-0.732 -2.136,-0.732c-0.864,0 -1.548,0.248 -2.052,0.744c-0.504,0.496 -0.812,1.16 -0.924,1.992l5.904,0Z" style="fill-rule:nonzero;"/><path d="M183.329,105.64l2.88,0l-0,1.824l0.048,0c0.32,-0.672 0.776,-1.192 1.368,-1.56c0.592,-0.368 1.272,-0.552 2.04,-0.552c0.176,0 0.348,0.016 0.516,0.048c0.168,0.032 0.34,0.072 0.516,0.12l-0,2.784c-0.24,-0.064 -0.476,-0.116 -0.708,-0.156c-0.232,-0.04 -0.46,-0.06 -0.684,-0.06c-0.672,0 -1.212,0.124 -1.62,0.372c-0.408,0.248 -0.72,0.532 -0.936,0.852c-0.216,0.32 -0.36,0.64 -0.432,0.96c-0.072,0.32 -0.108,0.56 -0.108,0.72l-0,6.168l-2.88,0l-0,-11.52Z" style="fill-rule:nonzero;"/></svg>
